<svg width="2000" height="1500" viewBox="0 0 2000 1500" fill="none" xmlns="http://www.w3.org/2000/svg">
<g id="svg-light-01 1" clip-path="url(#clip0)">
<g id="Group">
<g id="Group_2">
<path id="Vector" d="M1925.37 1135.67C1925.42 1146.41 1924.86 1157.12 1923.68 1167.7C1921.72 1185.36 1918.02 1202.68 1912.48 1219.26C1908.59 1230.96 1903.78 1242.28 1898.02 1253.09C1896.37 1256.2 1894.63 1259.26 1892.82 1262.28H140.607C140.607 1262.28 -18.973 873.52 198.432 685.311C201.151 682.963 203.878 680.651 206.613 678.393C209.14 676.321 211.673 674.286 214.216 672.287C216.684 670.332 219.176 668.431 221.668 666.556C287.197 617.316 358.953 592.964 434.223 577.87C436.874 577.335 439.526 576.817 442.195 576.308C444.721 575.817 447.247 575.344 449.78 574.88C510.803 563.687 573.982 557.794 637.909 549.046C660.154 545.993 682.5 542.602 704.872 538.513C794.401 522.169 884.415 494.729 971.073 434.126C998.438 414.987 1026.02 399.509 1053.49 387.315C1055.38 386.476 1057.27 385.646 1059.17 384.843C1061.02 384.048 1062.87 383.272 1064.72 382.513C1119.1 360.098 1172.84 350.422 1223.35 350.583C1225.34 350.583 1227.32 350.601 1229.3 350.636C1231.19 350.672 1233.08 350.725 1234.96 350.788C1250.99 351.314 1266.67 352.841 1281.92 355.252C1288.3 356.261 1294.61 357.421 1300.81 358.742C1309.95 360.679 1318.91 362.928 1327.66 365.49C1440.17 398.34 1519.82 480.83 1524.39 566.142C1527.47 623.647 1533.88 678.894 1548.08 726.83C1554.66 749.022 1562.9 769.659 1573.27 788.218C1576.09 793.28 1579.07 798.172 1582.2 802.911C1613.19 849.598 1660.28 880.359 1732.04 885.473C1781.92 889.036 1823.95 912.806 1855.93 947.987C1856.22 948.317 1856.52 948.638 1856.82 948.977C1900.39 997.467 1925.09 1067.23 1925.37 1135.67Z" fill="#E1EFFF"/>
<g id="Group_3">
<path id="Vector_2" d="M1134.52 921.1L1098.34 912.344L1097.67 915.107L1133.85 923.862L1134.52 921.1Z" fill="#6C80A3"/>
<path id="Vector_3" d="M1116.16 918.657L1134.71 859.767L1132 858.913L1113.45 917.803L1116.16 918.657Z" fill="#6C80A3"/>
<path id="Vector_4" d="M1195.84 608.112L1008.85 1186.11L1014.32 1187.38L1209.51 611.293L1195.84 608.112Z" fill="#6C80A3"/>
<path id="Vector_5" d="M1204.75 644.419L1040.93 1229.4L1046.45 1230.46L1218.53 647.053L1204.75 644.419Z" fill="#6C80A3"/>
<path id="Vector_6" d="M1216.26 636.13L1331.73 1211.13L1326.17 1211.58L1202.36 637.261L1216.26 636.13Z" fill="#6C80A3"/>
<path id="Vector_7" d="M1257.72 543.964L1142.87 871.268L1143.37 872.638L1153.28 873.942L1265.43 548.55L1257.72 543.964Z" fill="#899ECC"/>
<path id="Vector_8" d="M1213.61 554.809L1108.6 864.987L1143.37 872.638L1258.12 543.681L1213.61 554.809Z" fill="#A6BFFF"/>
</g>
<path id="Vector_9" d="M945.549 705.507C938.451 699.714 923.64 707.845 912.556 737.948C901.482 768.102 895.142 790.478 895.345 814.224C895.576 838.03 914.382 898.594 914.382 898.594L905.976 924.184L898.048 932.818L906.507 939.789L920.723 931.153L925.47 902.372L922.929 870.306L921.866 817.597L918.95 807.893L947.998 729.483C947.998 729.484 952.668 711.382 945.549 705.507Z" fill="#F29A86"/>
<path id="Vector_10" d="M943.472 702.354C944.697 702.067 954.499 706.384 954.76 721.158C955.021 735.932 939.192 752.236 936.714 758.08C934.236 763.924 925.133 799.888 925.133 799.888C925.133 799.888 893.223 807.146 892.722 807.715C892.221 808.284 894.303 790.116 894.303 790.116C894.303 790.116 902.022 745.705 911.693 727.75C921.364 709.795 942.247 702.642 943.472 702.354Z" fill="#939393"/>
<g id="Group_4">
<path id="Vector_11" d="M1141.11 747.661L1148.32 750.26L1140.78 751.621L1138.69 751.446L1139.02 747.485L1141.11 747.661Z" fill="#FACD8C"/>
<path id="Vector_12" d="M1066.22 745.363L1071.13 745.775L1071.46 741.815L1066.55 741.403C1066.17 741.371 1065.83 741.655 1065.8 742.038L1065.58 744.611C1065.55 744.994 1065.84 745.331 1066.22 745.363Z" fill="#FE5524"/>
<path id="Vector_13" d="M1140.53 748.609L1070.12 742.699L1070.2 741.709L1140.62 747.619C1140.89 747.642 1141.09 747.882 1141.07 748.156C1141.05 748.429 1140.81 748.632 1140.53 748.609Z" fill="#648BCC"/>
<path id="Vector_14" d="M1140.37 750.59L1069.96 744.68L1070.12 742.7L1140.53 748.61C1140.81 748.633 1141.01 748.873 1140.99 749.147L1140.91 750.137C1140.88 750.409 1140.64 750.613 1140.37 750.59Z" fill="#98CAFF"/>
<path id="Vector_15" d="M1140.29 751.58L1069.87 745.67L1069.96 744.68L1140.37 750.59C1140.64 750.613 1140.85 750.853 1140.82 751.127C1140.8 751.4 1140.56 751.603 1140.29 751.58Z" fill="#648BCC"/>
<path id="Vector_16" d="M1148.32 750.26L1145.29 749.169L1145.15 750.831L1148.32 750.26Z" fill="#544945"/>
</g>
<path id="Vector_17" d="M889.728 1148.44L905.062 1153.32L903.886 1175.29L908.415 1187.41L883.788 1181.37L882.521 1177.41C882.521 1177.41 894.088 1167.5 889.728 1148.44Z" fill="#FD9285"/>
<g id="Group_5">
<path id="Vector_18" d="M873.298 1198.09L901.576 1195.14L932.903 1198.99C932.903 1198.99 952.519 1203.25 956.54 1205.6C960.561 1207.94 959.783 1213.09 959.783 1213.09L873.971 1206.92C873.971 1206.92 873.971 1206.91 873.15 1206.62C872.329 1206.34 873.298 1198.09 873.298 1198.09Z" fill="#BEBBED"/>
<path id="Vector_19" d="M881.987 1175.49C881.987 1175.49 902.497 1177.81 904.652 1172.68C904.652 1172.68 928.081 1191.26 939.184 1194.14C950.287 1197.02 958.453 1204.49 958 1206.76L938.602 1203.84L873.299 1198.09C873.298 1198.09 878.85 1177.71 881.987 1175.49Z" fill="#728AB2"/>
<g id="Group_6">
<path id="Vector_20" d="M923.936 1186.15L919.08 1192.42L923.108 1185.59L923.936 1186.15Z" fill="white"/>
</g>
<g id="Group_7">
<path id="Vector_21" d="M928.834 1189.54L923.978 1195.81L928.006 1188.98L928.834 1189.54Z" fill="white"/>
</g>
<g id="Group_8">
<path id="Vector_22" d="M919.431 1183.24L914.154 1190.69L918.584 1182.71L919.431 1183.24Z" fill="white"/>
</g>
<g id="Group_9">
<path id="Vector_23" d="M873.131 1201.99L926.558 1207.55L873.037 1202.99L873.131 1201.99Z" fill="white"/>
</g>
</g>
<path id="Vector_24" d="M885.026 1157.08L901.705 1160.28L909.319 1161.01L931.934 1048.01L938.035 1028.12L944.948 994.12C946.553 988.407 948.083 982.518 949.522 976.417C957.662 941.315 962.169 902.24 958.059 886.385C954.318 871.798 940.295 862.028 940.295 862.028C930.216 859.766 913.44 855.828 902.363 878.566C894.609 894.517 894.538 930.992 902.19 987.618L902.164 987.572L900.264 1040.26C900 1040.62 900.132 1041.48 899.889 1041.78C899.886 1041.78 886.523 1045.68 885.026 1157.08Z" fill="#0A0A0A"/>
<g id="Group_10">
<path id="Vector_25" d="M520.669 914L474.296 1222H479.392L533.409 914H520.669Z" fill="#728AB2"/>
<path id="Vector_26" d="M714.316 916L760.69 1227H755.594L701.576 916H714.316Z" fill="#728AB2"/>
<path id="Vector_27" d="M487.236 916.709L420.136 1219.34L425.209 1220.03L499.918 918.433L487.236 916.709Z" fill="#728AB2"/>
<path id="Vector_28" d="M747.943 915.541L815.043 1218.17L809.971 1218.86L735.261 917.265L747.943 915.541Z" fill="#728AB2"/>
<path id="Vector_29" d="M753.309 903.5C753.309 907.486 750.411 911 746.835 911H486.885C483.31 911 480.411 907.486 480.411 903.5C480.411 899.514 483.309 896 486.885 896H746.836C750.411 896 753.309 899.514 753.309 903.5Z" fill="#728AB2"/>
<path id="Vector_30" d="M756.076 910C756.076 915.049 753.186 919 749.621 919H484.026C480.461 919 477.571 915.049 477.571 910C477.571 904.951 480.461 901 484.026 901H749.62C753.186 901 756.076 904.951 756.076 910Z" fill="#728AB2"/>
</g>
<path id="Vector_31" d="M1131.15 745.944C1131.15 745.944 1129.91 747.978 1125.06 746.992C1120.22 746.02 1113.42 749.072 1113.42 749.072L1119.72 752.412C1119.72 752.412 1121.09 752.943 1119.98 754.598C1119.98 754.598 1121.47 756.784 1119.7 757.877C1119.7 757.877 1120.49 760.337 1118.9 761.369C1118.9 761.369 1120.21 765.028 1116.17 765.772C1112.11 766.531 1108.64 765.59 1107.27 767.275C1105.9 768.915 1097.08 785.266 1087.29 782.108C1082.54 786.207 1038.45 824.026 1018.36 832.862C1017.51 833.226 1016.69 833.5 1015.89 833.849C1009.54 829.143 1004.37 823.905 1002.94 816.997C1003.88 818.895 1004.85 820.747 1005.9 822.584C1010.33 814.841 1010.27 809.436 1018.53 808.024L1020.17 807.204L1058.11 786.511L1083.75 773.014L1097.73 751.455C1097.73 751.455 1111.57 743.925 1114.01 743.408C1116.47 742.892 1124.41 745.017 1124.41 745.017C1124.41 745.017 1129.06 746.096 1131.15 745.944Z" fill="#FDA68E"/>
<path id="Vector_32" d="M962.477 779.448C979.092 801.067 992.737 816.606 1009.02 828.287C1010.73 829.524 1012.46 830.713 1014.24 831.853C1014.54 822.926 1016.26 814.804 1022.9 809.697L1020 805.898L974.066 745.743C974.066 745.743 961.516 732.44 952.928 735.31C944.427 738.142 943.398 754.585 962.477 779.448Z" fill="#FDA68E"/>
<path id="Vector_33" d="M942.839 1153.46L958.74 1155.94L960.943 1177.83L967.276 1189.12L942.013 1186.92L940.154 1183.2C940.154 1183.2 950.067 1171.63 942.839 1153.46Z" fill="#FD9285"/>
<g id="Group_11">
<path id="Vector_34" d="M931.344 1203.57L959.566 1200.13L990.955 1203.44C990.955 1203.44 1010.64 1207.36 1014.7 1209.63C1018.76 1211.9 1018.08 1217.06 1018.08 1217.06L932.17 1212.38C932.17 1212.38 932.17 1212.38 931.344 1212.11C930.518 1211.83 931.344 1203.57 931.344 1203.57Z" fill="#BEBBED"/>
<path id="Vector_35" d="M939.638 1180.82C939.638 1180.82 960.185 1182.78 962.25 1177.62C962.25 1177.62 985.998 1195.79 997.149 1198.48C1008.3 1201.16 1016.6 1208.49 1016.18 1210.77L996.736 1208.19L931.343 1203.57C931.344 1203.57 936.54 1183.09 939.638 1180.82Z" fill="#728AB2"/>
<g id="Group_12">
<path id="Vector_36" d="M981.766 1190.76L977.02 1197.11L980.929 1190.21L981.766 1190.76Z" fill="white"/>
</g>
<g id="Group_13">
<path id="Vector_37" d="M986.722 1194.06L981.977 1200.42L985.885 1193.52L986.722 1194.06Z" fill="white"/>
</g>
<g id="Group_14">
<path id="Vector_38" d="M977.211 1187.92L972.064 1195.46L976.356 1187.41L977.211 1187.92Z" fill="white"/>
</g>
<g id="Group_15">
<path id="Vector_39" d="M931.244 1207.48L984.76 1212.11L931.167 1208.48L931.244 1207.48Z" fill="white"/>
</g>
</g>
<path id="Vector_40" d="M927.916 900.411C964.995 912.86 966.317 872.132 964.095 841.838C964.032 840.899 963.937 840 963.874 839.06C948.512 843.19 931.908 843.855 915.676 841.462C907.24 858.873 896.511 889.905 927.916 900.411Z" fill="#121316"/>
<path id="Vector_41" d="M939.053 1159.52L956.03 1159.12L963.627 1158.21L961.906 1040.85L963.675 1019.73L963.263 984.394C963.628 978.361 963.881 972.169 964.001 965.786C964.556 929.089 960.722 889.216 953.362 874.313C946.63 860.593 930.861 853.877 930.861 853.877C920.532 853.789 903.303 853.472 897.269 878.49C893.053 896.037 900.675 932.369 920.095 987.105L920.06 987.065L929.313 1039.94C929.13 1040.35 929.44 1041.17 929.265 1041.52C929.265 1041.52 917.026 1048.28 939.053 1159.52Z" fill="#121316"/>
<path id="Vector_42" d="M933.543 640.086L951.466 620.454C951.466 620.454 1031.61 581.443 1016.98 672.768C1016.98 672.768 1017.17 668.693 1014.87 661.762C1014.87 661.762 993.005 714.683 968.671 711.709C968.671 711.709 993.114 702.748 1003.78 676.054C1003.78 676.054 975.033 715.286 940.876 696.563L934.316 677.013L930.65 655.467L933.543 640.086Z" fill="#0A0A0A"/>
<path id="Vector_43" d="M939.188 656.786L942.86 652.51L955.639 667.908C955.639 667.908 951.165 685.258 955.062 701.092C955.129 701.365 955.337 701.579 955.409 701.851C959.672 717.895 932.727 699.529 932.727 699.529L930.27 667.17L939.188 656.786Z" fill="#FDB99C"/>
<path id="Vector_44" d="M942.646 634.637L1003.27 608.337L1004.02 608.28C1004.02 608.28 1011.01 625.069 1002.82 637.491C994.623 649.913 992.814 653.667 1001.41 661.579C1001.41 661.579 1000.68 664.489 993.793 664.06C993.793 664.06 993.348 668.852 994.177 669.741C995.006 670.63 989.904 670.494 989.904 670.494L989.084 670.342C989.084 670.342 993.795 672.435 989.818 675.211C985.841 677.987 983.228 681.167 983.604 683.613C983.98 686.059 974.845 690.245 967.3 681.111C959.755 671.977 955.069 670.428 955.069 670.428C955.069 670.428 945.816 666.372 943.085 660.489C940.354 654.606 939.617 649.903 939.617 649.903L942.646 634.637Z" fill="#FEB7A6"/>
<g id="Group_16">
<path id="Vector_45" d="M999.104 637.467C999.104 637.467 995.755 636.104 992.303 634.992C991.446 634.693 990.571 634.472 989.757 634.223C988.942 633.986 988.165 633.833 987.505 633.667C986.843 633.51 986.277 633.471 985.886 633.401C985.492 633.344 985.268 633.311 985.268 633.311C985.268 633.311 985.494 633.328 985.89 633.358C986.284 633.401 986.859 633.402 987.532 633.513C988.202 633.634 988.997 633.734 989.831 633.915C990.661 634.107 991.562 634.271 992.44 634.511C995.975 635.386 999.447 636.527 999.447 636.527L999.104 637.467Z" fill="black"/>
</g>
<g id="Group_17">
<path id="Vector_46" d="M993.282 647.393C993.282 647.393 993.09 647.39 992.696 647.337C992.498 647.32 992.285 647.271 992.037 647.22C991.79 647.166 991.506 647.12 991.214 647.024C990.919 646.937 990.6 646.843 990.262 646.743C989.931 646.629 989.589 646.489 989.233 646.355C988.511 646.107 987.794 645.728 987.063 645.389C986.323 645.067 985.65 644.614 984.987 644.259C984.323 643.904 983.741 643.51 983.241 643.174C982.241 642.51 981.574 642.067 981.574 642.067C981.574 642.067 982.273 642.456 983.321 643.04C983.842 643.335 984.449 643.679 985.135 643.98C985.819 644.28 986.514 644.674 987.267 644.933C988.011 645.209 988.739 645.525 989.456 645.71C989.811 645.812 990.15 645.922 990.476 646.007C990.804 646.076 991.115 646.142 991.401 646.202C991.686 646.273 991.95 646.293 992.182 646.325C992.414 646.355 992.619 646.385 992.771 646.384C993.074 646.404 993.281 646.394 993.281 646.394L993.282 647.393Z" fill="black"/>
</g>
<g id="Group_18">
<path id="Vector_47" d="M950.763 638.662C950.763 638.662 950.712 639.282 950.777 640.259C950.846 641.224 951.039 642.518 951.481 643.742C951.609 644.038 951.711 644.351 951.86 644.633C952.011 644.913 952.135 645.208 952.315 645.456C952.483 645.71 952.634 645.969 952.825 646.175C953.01 646.385 953.161 646.612 953.352 646.768C953.533 646.937 953.699 647.091 953.846 647.228C954.01 647.345 954.153 647.446 954.27 647.53C954.508 647.697 954.644 647.793 954.644 647.793C954.644 647.793 954.5 647.711 954.247 647.567C954.12 647.494 953.967 647.405 953.79 647.302C953.628 647.177 953.445 647.037 953.246 646.884C953.035 646.741 952.861 646.528 952.65 646.329C952.433 646.133 952.254 645.885 952.054 645.637C951.843 645.396 951.687 645.107 951.501 644.828C951.318 644.547 951.182 644.235 951.019 643.936C950.74 643.317 950.492 642.679 950.324 642.063C950.138 641.45 950.03 640.863 949.939 640.358C949.775 639.354 949.764 638.642 949.764 638.642L950.763 638.662Z" fill="#C4796A"/>
</g>
<path id="Vector_48" d="M911.889 843.058C927.954 824.501 927.778 794.183 927.778 794.183L933.235 753.735L938.908 737.737L961.967 765.484L974.166 794.063C974.166 794.063 966.097 817.496 965.617 823.93C965.137 830.363 970.625 833.51 971.251 834.452C971.877 835.395 961.287 844.606 961.287 844.606C961.287 844.606 895.824 861.615 911.889 843.058Z" fill="#939393"/>
<path id="Vector_49" d="M924.564 759.905C922.491 738.999 930.562 692.874 930.562 692.874L951.422 700.751L945.399 720.107C945.399 720.107 944.164 792.668 926.406 809.905C926.406 809.905 926.637 780.811 924.564 759.905Z" fill="#777676"/>
<path id="Vector_50" d="M961.937 775.558C962.109 775.919 975.219 793.294 975.219 793.294L969.754 807.617C959.155 801.277 945.18 752.386 945.18 752.386C945.18 752.386 961.765 775.197 961.937 775.558Z" fill="#777676"/>
<path id="Vector_51" d="M940.75 701.049C941.379 699.951 951.555 695.635 963.216 705.413C974.877 715.191 976.531 737.869 979.347 743.641C982.163 749.412 1003.77 780.398 1003.77 780.398C1003.77 780.398 987.208 808.833 987.301 809.586C987.394 810.339 974.726 796.543 974.726 796.543C974.726 796.543 945.59 760.878 938.367 741.628C931.147 722.377 940.121 702.147 940.75 701.049Z" fill="#939393"/>
<g id="Group_19">
<path id="Vector_52" d="M847.023 677.043C872.028 668.8 889.134 660.142 912.638 618.77C936.142 577.398 948.25 579.778 948.25 579.778C1023.62 586.49 1018.27 642.979 1018.27 642.979C1010.31 618.46 1000.43 616.165 1000.43 616.165C973.442 645.875 943.131 628.509 937.09 629.158C931.049 629.807 918.787 651.293 918.231 654C917.675 656.707 924.635 683.204 942.198 703.949C959.76 724.693 942.848 752.623 942.848 752.623C942.848 752.623 921.276 772.659 923.087 786.479C924.898 800.299 901.426 808.679 894.885 809.429C888.344 810.179 876.051 818.726 876.051 818.726C879.299 811.374 873.701 801.141 873.701 801.141C873.091 809.815 856.268 825.557 856.268 825.557C863.643 805.711 859.086 782.457 859.086 782.457C858.358 792.917 853.049 803.217 853.049 803.217C854.637 787.363 847.352 774.974 847.352 774.974C848.316 780.991 838.891 793.888 838.891 793.888C842.142 783.237 834.455 765.549 834.455 765.549C804.326 696.274 850.998 679.281 850.998 679.281C800.146 684.665 825.382 756.341 825.382 756.341C798.659 698.479 822.019 685.286 847.023 677.043Z" fill="#0F1014"/>
<path id="Vector_53" d="M889.31 639.067C900.003 619.476 898.218 619.358 936.441 628.129C974.665 636.9 997.432 619.248 997.432 619.248L995.891 622.347C995.891 622.347 994.022 627.818 980.8 634.151C967.578 640.484 952.905 641.09 952.905 641.09C932.924 651.996 939.145 700.501 939.145 700.501C913.096 684.969 901.632 640.923 901.632 640.923C900.875 640.98 905.423 634.037 890.661 646.831C875.899 659.625 870.553 649.373 870.553 649.373C870.553 649.373 878.617 658.657 889.31 639.067Z" fill="black"/>
</g>
<path id="Vector_54" d="M993.753 669.178C995.208 669.543 995.364 672.529 991.791 671.849C991.791 671.849 993.621 676.206 989.671 674.318L988.757 673.555L983.907 667.127C983.907 667.126 992.298 668.813 993.753 669.178Z" fill="#DD5A6E"/>
<g id="Group_20">
<g id="Group_21">
<path id="Vector_55" d="M954.143 651.684C954.205 652.504 954.268 653.324 954.33 654.144C954.268 653.327 954.355 652.464 954.355 651.644C954.355 650.816 954.393 649.971 954.33 649.144C954.268 648.324 954.205 647.504 954.143 646.684C954.205 647.501 954.118 648.364 954.118 649.184C954.118 650.013 954.08 650.857 954.143 651.684Z" fill="#FE5E22"/>
</g>
</g>
<g id="Group_22">
<g id="Group_23">
<g id="Group_24">
<g id="Group_25">
<g id="Group_26">
<path id="Vector_56" d="M953.484 659.322C953.57 659.319 953.765 659.302 953.725 659.297L953.394 659.316L953.484 659.322Z" fill="#676362"/>
<path id="Vector_57" d="M954.091 659.219C953.93 659.221 953.648 659.231 953.346 659.261C953.664 659.247 953.532 659.259 953.91 659.241C953.949 659.247 953.805 659.264 953.684 659.272C953.769 659.269 953.612 659.291 953.82 659.279C954.075 659.249 954.084 659.234 953.872 659.235C953.944 659.226 954.03 659.223 954.091 659.219Z" fill="#676362"/>
<path id="Vector_58" d="M954.543 658.357L954.504 658.365C954.526 658.362 954.538 658.359 954.543 658.357Z" fill="#676362"/>
<path id="Vector_59" d="M954.685 657.833C954.693 657.836 954.726 657.835 954.756 657.833C954.734 657.831 954.714 657.83 954.685 657.833Z" fill="#676362"/>
<path id="Vector_60" d="M955.043 657.718C955.033 657.721 955.028 657.723 955.021 657.725C955.051 657.721 955.067 657.718 955.043 657.718Z" fill="#676362"/>
<path id="Vector_61" d="M954.543 658.357L954.646 658.336C954.538 658.342 954.566 658.348 954.543 658.357Z" fill="#676362"/>
<path id="Vector_62" d="M953.286 659.166C953.302 659.168 953.333 659.168 953.374 659.167C953.359 659.166 953.347 659.164 953.338 659.163C953.32 659.163 953.305 659.164 953.286 659.166Z" fill="#676362"/>
<path id="Vector_63" d="M954.828 658.561L954.829 658.565C954.867 658.563 954.912 658.561 954.963 658.558L954.828 658.561Z" fill="#676362"/>
<path id="Vector_64" d="M954.891 658.73C954.903 658.725 954.623 658.745 954.5 658.753C954.616 658.746 954.671 658.745 954.693 658.747C954.746 658.743 954.81 658.737 954.891 658.73Z" fill="#676362"/>
<path id="Vector_65" d="M954.419 659.041L954.458 659.043C954.446 659.042 954.435 659.041 954.419 659.041Z" fill="#676362"/>
<path id="Vector_66" d="M954.879 658.433C954.921 658.43 954.957 658.426 954.979 658.424C954.944 658.426 954.91 658.43 954.879 658.433Z" fill="#676362"/>
<path id="Vector_67" d="M952.406 653.768C952.426 653.767 952.439 653.765 952.456 653.764C952.428 653.765 952.408 653.767 952.406 653.768Z" fill="#676362"/>
<path id="Vector_68" d="M953.779 653.463L953.794 653.465C953.847 653.461 953.899 653.458 953.951 653.454L953.779 653.463Z" fill="#676362"/>
<path id="Vector_69" d="M955.389 657.532C955.386 657.533 955.386 657.533 955.384 657.533C955.416 657.535 955.411 657.533 955.389 657.532Z" fill="#676362"/>
<path id="Vector_70" d="M955.072 656.085C954.823 656.121 954.748 656.082 954.472 656.129C954.581 656.118 954.91 656.118 955.072 656.085Z" fill="#676362"/>
<path id="Vector_71" d="M953.323 659.158C953.32 659.156 953.317 659.154 953.32 659.151C953.31 659.155 953.312 659.157 953.323 659.158Z" fill="#676362"/>
<path id="Vector_72" d="M954.472 656.128C954.471 656.128 954.469 656.128 954.469 656.128L954.443 656.133C954.455 656.131 954.462 656.13 954.472 656.128Z" fill="#676362"/>
<path id="Vector_73" d="M955.193 657.177C955.144 657.182 955.106 657.186 955.071 657.19C955.099 657.188 955.134 657.185 955.193 657.177Z" fill="#676362"/>
<path id="Vector_74" d="M954.815 657.481L954.852 657.471C954.827 657.476 954.818 657.479 954.815 657.481Z" fill="#676362"/>
<path id="Vector_75" d="M954.787 657.065C954.808 657.06 954.847 657.055 954.809 657.053C954.795 657.055 954.785 657.056 954.775 657.057C954.813 657.057 954.831 657.058 954.787 657.065Z" fill="#676362"/>
<path id="Vector_76" d="M954.774 656.918C954.753 656.92 954.737 656.923 954.718 656.925C954.724 656.926 954.728 656.927 954.733 656.929L954.774 656.918Z" fill="#676362"/>
<path id="Vector_77" d="M952.575 654.207C952.654 654.198 952.74 654.189 952.826 654.181C952.628 654.198 952.555 654.182 952.575 654.207Z" fill="#676362"/>
<path id="Vector_78" d="M953.444 659.154C953.373 659.158 953.338 659.16 953.323 659.159C953.326 659.16 953.332 659.162 953.338 659.163C953.38 659.159 953.419 659.156 953.444 659.154Z" fill="#676362"/>
<path id="Vector_79" d="M952.575 657.227L952.615 657.2C952.588 657.209 952.575 657.219 952.575 657.227Z" fill="#676362"/>
<path id="Vector_80" d="M952.696 655.264L952.662 655.261C952.655 655.264 952.664 655.265 952.696 655.264Z" fill="#676362"/>
<path id="Vector_81" d="M952.568 657.134C952.666 657.122 952.724 657.113 952.761 657.106C952.739 657.107 952.721 657.107 952.689 657.109L952.568 657.134Z" fill="#676362"/>
<path id="Vector_82" d="M952.152 654.077C952.146 654.1 952.513 654.06 952.725 654.049C952.831 654.068 952.455 654.082 952.267 654.105C952.366 654.114 952.705 654.101 952.691 654.115C952.63 654.121 952.608 654.125 952.532 654.128C952.826 654.123 952.55 654.179 952.92 654.172C952.888 654.176 952.857 654.179 952.829 654.182C953.013 654.165 953.201 654.15 953.334 654.14C953.341 654.15 953.568 654.141 953.328 654.163C953.335 654.156 953.237 654.163 953.162 654.166L953.268 654.169C952.922 654.205 953.147 654.164 952.891 654.183C953.005 654.195 953.293 654.197 953.197 654.22C952.859 654.249 953.08 654.192 952.781 654.236L952.909 654.202C952.376 654.261 952.945 654.184 952.375 654.245C952.279 654.284 952.55 654.268 952.454 654.307C952.643 654.3 952.732 654.284 952.921 654.276C953.263 654.296 952.072 654.376 952.526 654.375C952.752 654.366 953.181 654.337 952.956 654.378L952.573 654.399C952.538 654.433 953.125 654.375 952.87 654.427C952.719 654.433 952.741 654.412 952.696 654.42C952.395 654.464 952.914 654.418 952.916 654.435L952.577 654.464C952.633 654.493 952.88 654.511 952.945 654.542C952.844 654.548 952.737 654.549 952.634 654.566C952.807 654.599 952.6 654.667 952.402 654.727L952.696 654.722C952.693 654.726 952.564 654.739 952.507 654.739C952.397 654.765 952.693 654.726 952.808 654.725C952.829 654.733 952.641 654.751 952.553 654.751C952.803 654.763 953.094 654.797 952.783 654.853H952.696C952.579 654.887 953.298 654.836 953.027 654.88L952.975 654.879C952.852 654.943 953.125 654.983 952.686 655.058C953.108 655.034 952.502 655.126 953.09 655.085C952.801 655.138 952.695 655.137 952.503 655.196C952.477 655.21 952.871 655.186 952.934 655.195L952.627 655.219L952.951 655.214L952.584 655.252L952.664 655.26C952.682 655.253 952.801 655.238 952.89 655.232C953.031 655.243 952.68 655.3 952.522 655.312L952.786 655.342C952.662 655.35 952.619 655.345 952.54 655.345C952.856 655.348 952.217 655.374 952.506 655.377C952.576 655.368 952.689 655.365 952.751 655.361C952.566 655.387 952.567 655.415 952.647 655.43L952.435 655.442C952.384 655.483 952.542 655.513 952.542 655.555C952.64 655.533 953.007 655.508 953.043 655.518L952.719 655.548C952.92 655.541 952.84 655.526 953.087 655.523C953.051 655.541 952.718 655.562 952.612 655.561L952.726 655.571C952.629 655.579 952.578 655.579 952.454 655.587C952.656 655.579 952.131 655.644 952.482 655.629L952.385 655.637C952.385 655.679 952.499 655.689 952.518 655.722C952.799 655.701 952.737 655.719 952.965 655.712C952.878 655.744 952.659 655.788 952.685 655.816C952.826 655.826 952.923 655.804 953.09 655.801C952.835 655.822 952.861 655.85 952.676 655.848C952.72 655.881 952.73 655.89 952.941 655.92C953.045 655.907 953.09 655.898 953.178 655.894C953.221 655.899 953.072 655.921 952.949 655.929H952.923C953.31 655.951 952.187 656.104 952.723 656.104H952.697L952.978 656.125C952.935 656.148 952.785 656.128 952.628 656.154C953.057 656.167 952.572 656.231 952.858 656.247C952.107 656.333 952.919 656.346 952.441 656.422L952.618 656.406C952.793 656.403 952.517 656.426 952.477 656.437C952.615 656.426 952.636 656.414 952.732 656.413C952.953 656.483 952.486 656.61 952.333 656.71C952.288 656.746 953.252 656.659 952.832 656.731L952.502 656.744C952.902 656.779 952.498 656.878 952.839 656.916C952.763 656.918 952.664 656.925 952.665 656.919C952.427 656.951 952.657 656.97 952.853 656.955C952.831 656.967 952.676 656.971 952.578 656.984C952.438 657.008 952.886 656.995 952.649 657.02C952.61 657.024 952.571 657.022 952.552 657.021C952.669 657.021 952.526 657.064 952.801 657.035C952.671 657.069 952.927 657.071 952.765 657.103C953.075 657.092 952.62 657.155 953.056 657.126C952.605 657.159 952.696 657.195 952.909 657.194C952.772 657.199 952.769 657.218 952.58 657.226C952.588 657.243 952.673 657.252 952.904 657.232C952.367 657.305 953.343 657.263 952.653 657.333C952.899 657.366 953.067 657.401 953.176 657.439C952.726 657.471 953.127 657.392 952.655 657.429C952.844 657.459 953.232 657.455 953.126 657.506C953.066 657.522 952.931 657.514 952.853 657.516C953.042 657.546 952.819 657.603 953.066 657.624C953.024 657.627 952.978 657.626 952.943 657.625C952.958 657.632 952.879 657.648 953.083 657.631L953.027 657.628C953.323 657.593 953.649 657.611 953.806 657.601C953.219 657.632 953.662 657.651 952.92 657.686C952.959 657.688 953.056 657.687 953.193 657.676C953.154 657.686 953.074 657.695 952.918 657.699C953.031 657.718 953.248 657.692 953.245 657.717C953.146 657.724 953.107 657.722 952.991 657.729C953.185 657.727 953.379 657.725 953.297 657.752C953.237 657.755 953.16 657.764 953.161 657.757C953.194 657.791 953.68 657.779 953.496 657.833C953.065 657.854 953.355 657.857 952.983 657.888L953.096 657.901L953.276 657.879C953.271 657.898 953.544 657.894 953.423 657.919L953.269 657.917L953.342 657.947L953.482 657.916C953.675 657.92 953.953 657.878 953.851 657.911C953.813 657.909 953.848 657.93 953.629 657.956C953.629 657.956 953.629 657.956 953.628 657.956C953.747 657.956 953.873 657.956 953.781 657.977C953.662 657.99 953.369 658.005 953.29 658.014C953.602 657.999 953.379 658.051 953.712 658.037C953.634 658.039 953.439 658.054 953.399 658.058L953.652 658.046C953.572 658.061 953.533 658.065 953.377 658.075C953.333 658.104 953.849 658.031 953.647 658.077C953.626 658.076 953.589 658.08 953.55 658.078C953.446 658.117 953.715 658.126 953.593 658.163C953.219 658.2 953.499 658.145 953.184 658.179C953.255 658.215 953.64 658.23 953.554 658.276L953.595 658.265C954.124 658.23 953.336 658.314 953.587 658.316C953.547 658.314 953.293 658.332 953.352 658.329C953.269 658.363 953.486 658.375 953.656 658.403L953.52 658.408C953.4 658.433 953.453 658.455 953.393 658.477C953.529 658.472 953.508 658.483 953.705 658.462C952.935 658.574 954.127 658.532 953.487 658.628C953.485 658.622 953.367 658.624 953.367 658.628L953.495 658.659C953.725 658.638 953.634 658.643 953.813 658.621C953.95 658.616 954.057 658.619 954.058 658.629C953.904 658.622 953.688 658.657 953.56 658.675C953.63 658.668 953.709 658.665 953.78 658.659C953.372 658.711 954.244 658.627 953.97 658.677L953.849 658.685C953.912 658.691 954.072 658.689 954.039 658.703C953.773 658.728 953.914 658.701 953.694 658.717C953.711 658.732 954.201 658.711 953.937 658.746C953.862 658.745 953.86 658.735 953.786 658.734C953.474 658.774 953.554 658.77 953.505 658.785L953.512 658.783L953.372 658.821L953.456 658.808C954.152 658.776 953.586 658.84 954.043 658.833C953.61 658.839 953.793 658.848 953.491 658.868C953.408 658.881 953.314 658.899 953.229 658.903C953.474 658.897 953.039 658.939 953.396 658.931C953.299 658.939 953.388 658.946 953.143 658.961C953.221 658.972 953.312 658.944 953.434 658.936C953.768 658.937 953.036 659.028 953.495 659.03C953.685 659.048 954.013 659.029 954.179 659.047C954.024 659.069 953.824 659.066 953.824 659.066C953.682 659.093 953.709 659.103 953.822 659.11C953.737 659.113 953.665 659.122 953.556 659.135C953.582 659.145 953.911 659.116 953.768 659.143C953.659 659.148 953.486 659.158 953.377 659.16C953.467 659.168 953.65 659.168 953.739 659.177C953.57 659.194 953.481 659.187 953.37 659.19C953.447 659.201 953.527 659.222 953.795 659.207L953.89 659.189C953.904 659.194 953.66 659.21 953.611 659.209C953.4 659.21 953.702 659.181 953.8 659.173L953.863 659.179C954.433 659.125 953.768 659.143 953.8 659.119L954.215 659.096L953.869 659.1C953.977 659.087 954.208 659.066 954.271 659.072C954.475 659.041 954.123 659.069 954.35 659.039C954.386 659.035 954.405 659.034 954.422 659.034L954.297 659.028C954.384 659.024 954.59 659.003 954.53 659.017C954.767 658.972 954.216 658.997 954.529 658.963H954.555C954.412 658.936 954.25 658.982 953.891 658.981L954.641 658.905L954.336 658.924C954.347 658.919 954.369 658.91 954.491 658.902C954.282 658.903 954.359 658.915 954.161 658.921C954.437 658.881 954.027 658.879 954.512 658.838C954.28 658.849 954.335 658.869 954.172 658.862C954.693 658.817 954.081 658.846 954.319 658.811C954.589 658.796 954.447 658.823 954.686 658.787C954.23 658.811 954.783 658.746 954.695 658.738C954.333 658.765 954.542 658.718 954.419 658.703C954.541 658.695 954.614 658.642 954.744 658.61L954.805 658.606C954.439 658.629 954.506 658.601 954.429 658.59C954.648 658.574 954.735 658.571 954.834 658.572L954.831 658.556C954.713 658.561 954.651 658.561 954.608 658.554L954.882 658.537C954.865 658.517 954.556 658.519 954.737 658.478C954.482 658.496 954.028 658.554 953.855 658.538C953.993 658.526 954.229 658.507 954.286 658.511C954.268 658.51 954.171 658.511 954.229 658.501L954.462 658.495C954.563 658.475 954.267 658.503 954.288 658.492C954.485 658.477 954.428 658.474 954.584 658.464C954.603 658.465 954.503 658.479 954.581 658.477C954.615 658.463 954.731 658.441 954.88 658.425C954.768 658.434 954.615 658.445 954.589 658.439C954.573 658.419 954.825 658.414 954.926 658.394C954.789 658.399 954.929 658.375 954.635 658.397C954.636 658.391 954.773 658.379 954.853 658.371C954.722 658.37 954.812 658.323 954.5 658.359L954.48 658.363C954.474 658.363 954.474 658.362 954.467 658.362C954.172 658.348 954.628 658.275 954.5 658.249L954.598 658.242C954.484 658.229 954.528 658.2 954.315 658.201C954.315 658.195 954.494 658.173 954.611 658.166C954.536 658.155 954.425 658.162 954.586 658.126C954.759 658.129 954.738 658.109 954.713 658.133C954.796 658.105 954.954 658.089 954.683 658.086C954.936 658.075 954.999 658.046 954.923 658.042L954.743 658.071C954.705 658.063 954.727 658.051 954.748 658.039L955.08 658.019C955.48 657.945 954.387 657.993 955.06 657.909C954.827 657.915 954.898 657.945 954.626 657.955C954.669 657.932 955.144 657.875 955.144 657.869C955.326 657.828 954.657 657.88 954.781 657.843C954.663 657.856 954.348 657.883 954.234 657.87C954.276 657.847 954.729 657.808 954.824 657.813C954.834 657.817 954.797 657.822 954.757 657.825C954.801 657.828 954.852 657.833 954.98 657.815L954.861 657.821C954.981 657.802 954.966 657.776 955.161 657.767C955.047 657.761 954.966 657.775 954.906 657.791C955.075 657.752 954.908 657.751 955.021 657.716C954.956 657.725 954.817 657.739 954.818 657.735C954.962 657.685 954.592 657.735 954.538 657.713C954.717 657.684 954.969 657.686 954.816 657.671C954.937 657.646 955.13 657.644 955.227 657.643C954.997 657.636 955.374 657.587 955.414 657.57L955.51 657.575C955.453 657.572 955.454 657.565 955.454 657.559L955.218 657.584C955.259 657.574 955.259 657.567 955.358 657.56C955.202 657.564 954.965 657.596 954.752 657.597C954.872 657.578 954.621 657.577 954.934 657.55C954.83 657.589 955.249 657.523 955.302 657.545C955.264 657.543 955.265 657.537 955.306 657.526C955.341 657.522 955.371 657.522 955.389 657.523C955.667 657.472 955.033 657.536 955.038 657.505C955.215 657.495 955.373 657.472 955.335 657.47C955.332 657.483 955.04 657.498 954.904 657.497C955.04 657.467 954.8 657.483 954.815 657.472L954.751 657.489C954.574 657.498 954.596 657.487 954.539 657.477C954.677 657.465 954.635 657.482 954.695 657.473C954.383 657.481 955.014 657.414 954.803 657.409C954.922 657.39 955.136 657.383 955.216 657.368C954.985 657.362 955.457 657.324 955.265 657.313C955.028 657.338 955.086 657.335 954.853 657.335L955.024 657.363H954.676C954.674 657.376 954.828 657.378 954.788 657.388C954.593 657.39 954.652 657.387 954.455 657.408C954.811 657.364 954.245 657.39 954.484 657.352L955.073 657.308C955.333 657.259 954.767 657.279 954.912 657.229L954.81 657.249C954.576 657.262 954.776 657.228 954.68 657.223C954.877 657.209 954.948 657.196 955.07 657.181C954.924 657.193 955.081 657.152 954.688 657.178L954.946 657.141C955.05 657.102 954.382 657.148 954.447 657.113C954.662 657.106 954.8 657.082 954.955 657.09C954.956 657.08 954.992 657.068 954.855 657.078C954.978 657.063 954.588 657.071 954.774 657.047C954.687 657.049 954.481 657.064 954.496 657.051C954.536 657.047 954.593 657.044 954.593 657.044C954.496 657.051 954.459 657.037 954.242 657.063C954.854 656.986 954.191 656.981 954.716 656.914C954.648 656.897 954.583 656.876 954.567 656.857C954.626 656.854 954.665 656.85 954.645 656.855C954.826 656.814 954.079 656.881 954.281 656.835C954.598 656.795 954.454 656.838 954.574 656.819C955.222 656.766 954.483 656.788 954.859 656.739L954.898 656.741C955.117 656.708 954.65 656.721 954.694 656.691C954.694 656.691 954.751 656.688 954.792 656.684C954.46 656.691 954.348 656.666 954.255 656.648C954.509 656.637 954.39 656.649 954.647 656.625C954.61 656.617 954.234 656.66 954.16 656.643C954.298 656.625 954.418 656.6 954.693 656.577L954.709 656.597C955.064 656.559 954.695 656.571 954.756 656.555L954.911 656.545C954.858 656.516 954.466 656.546 954.492 656.509L954.375 656.522C953.985 656.532 954.592 656.49 954.302 656.493L954.695 656.457C954.599 656.452 954.311 656.442 954.235 656.425C954.528 656.416 954.679 656.431 954.854 656.434C954.856 656.421 954.822 656.394 954.627 656.402C954.665 656.404 954.762 656.403 954.702 656.413C954.391 656.421 954.238 656.413 954.243 656.387C955.007 656.333 954.43 656.308 955.022 656.245C954.736 656.223 955.136 656.149 955.087 656.101C954.495 656.164 955.069 656.087 954.46 656.137C954.42 656.128 954.43 656.123 954.469 656.119L954.83 656.055C955.007 656.033 954.965 656.056 955.102 656.045C955.147 656.015 955.36 656.014 955.52 655.985C955.302 656.005 955.207 656 955.289 655.979L955.009 656.021C954.682 656.009 955.518 655.951 955.194 655.938L955.387 655.935C955.272 655.925 955.386 655.865 954.894 655.884C954.964 655.875 955.131 655.858 955.175 655.863C955.245 655.812 954.646 655.803 954.945 655.745L955.094 655.737C955.05 655.732 954.813 655.744 954.962 655.722C955.024 655.718 955.111 655.714 955.119 655.71C955.067 655.709 954.856 655.708 954.942 655.69L955.11 655.687C955.302 655.628 954.696 655.651 954.591 655.622C955.03 655.589 955.17 655.543 955.24 655.521L955.302 655.517C955.352 655.462 954.932 655.458 954.756 655.424C955.23 655.358 954.948 655.309 955.212 655.242C955.133 655.255 954.87 655.267 954.825 655.262C954.913 655.244 954.518 655.255 954.921 655.226L954.913 655.231C955.307 655.193 955.201 655.178 955.21 655.159L954.683 655.196C955.445 655.091 954.392 655.096 955.076 655.018C954.943 655.017 954.944 655.003 954.812 655.002L955.094 654.981C955.164 654.945 955.198 654.926 955.128 654.893L955.33 654.885C955.347 654.862 954.514 654.919 954.496 654.901L954.917 654.863C954.908 654.826 955.275 654.759 954.89 654.751C954.952 654.747 955.074 654.739 955.091 654.744C955.101 654.725 955.371 654.654 954.793 654.704C955.17 654.675 954.827 654.662 954.659 654.654L954.937 654.636C954.581 654.646 954.484 654.653 954.383 654.636C954.419 654.628 954.605 654.614 954.535 654.627C954.679 654.597 954.271 654.632 954.417 654.598L954.595 654.593C954.615 654.572 954.52 654.581 954.312 654.586C954.2 654.582 954.379 654.544 954.63 654.522C954.477 654.531 954.271 654.536 954.343 654.519C954.438 654.51 954.497 654.51 954.526 654.51C954.713 654.463 954.199 654.486 954.47 654.443C954.562 654.436 954.608 654.431 954.636 654.427C954.631 654.453 954.618 654.476 954.597 654.475C954.853 654.456 954.897 654.431 955.252 654.421C955.058 654.419 954.636 654.422 954.755 654.392C954.78 654.389 954.804 654.386 954.843 654.383H954.872C954.897 654.376 954.873 654.374 954.83 654.373C954.872 654.363 954.903 654.357 954.906 654.35C955.118 654.332 955.018 654.317 955.028 654.306C954.748 654.328 954.792 654.311 954.562 654.341C954.582 654.338 954.595 654.34 954.608 654.346C954.616 654.347 954.621 654.349 954.637 654.348C954.629 654.348 954.62 654.349 954.612 654.349C954.621 654.355 954.628 654.364 954.633 654.374C954.49 654.377 954.37 654.377 954.524 654.354C954.343 654.362 954.158 654.37 954.071 654.374C954.461 654.33 954.67 654.286 954.911 654.264C954.751 654.244 954.802 654.197 954.273 654.217C954.205 654.213 954.423 654.195 954.506 654.185C954.559 654.186 954.552 654.193 954.628 654.19C954.492 654.182 954.571 654.14 954.203 654.164C954.367 654.129 954.543 654.151 954.48 654.124L954.593 654.12C955.176 654.014 953.646 654.091 954.396 653.965C954.35 653.973 954.329 653.977 954.267 653.983C954.594 653.88 953.942 653.846 954.464 653.729C954.569 653.699 954.334 653.714 954.154 653.715L954.455 653.687L954.106 653.69C953.849 653.677 954.841 653.578 954.356 653.573L954.154 653.594C954.191 653.576 954.031 653.556 954.264 653.541C954.227 653.542 954.053 653.552 954.158 653.538L954.315 653.526L954.042 653.51C954.154 653.473 954.668 653.467 954.695 653.424C954.633 653.413 954.233 653.415 954.128 653.429C954.121 653.436 954.031 653.452 953.873 653.465L953.79 653.457C953.326 653.49 952.849 653.515 952.528 653.574L952.814 653.576L952.589 653.601L952.573 653.582C952.362 653.609 952.55 653.602 952.679 653.601C952.559 653.612 952.476 653.622 952.432 653.63L952.877 653.62C952.695 653.637 952.516 653.637 952.417 653.66C952.624 653.655 952.823 653.619 952.96 653.626C952.75 653.653 952.578 653.663 952.759 653.663C952.64 653.674 952.563 653.677 952.51 653.676C952.654 653.677 952.573 653.703 952.82 653.69C952.56 653.722 952.891 653.725 952.451 653.757C952.557 653.753 952.798 653.752 952.817 653.761C952.289 653.781 952.789 653.804 952.225 653.842C952.699 653.821 952.439 653.879 952.704 653.886C952.666 653.887 952.59 653.89 952.614 653.886C952.576 653.904 952.434 653.919 952.345 653.935C952.736 653.907 952.827 653.923 953.069 653.917C952.694 653.964 952.61 653.941 952.248 653.974C952.565 653.949 952.567 653.981 952.83 653.955C952.598 653.987 952.718 653.976 952.395 654.007C952.884 653.972 952.479 654.014 952.78 654.002C952.541 654.04 952.323 654.042 952.473 654.053C952.327 654.083 952.152 654.077 952.152 654.077ZM953.036 654.535C953.033 654.535 953.031 654.535 953.03 654.535C953.023 654.531 953.017 654.528 953.013 654.525C953.018 654.528 953.024 654.531 953.036 654.535ZM953.044 654.579C953.055 654.573 953.056 654.566 953.054 654.559C953.151 654.55 953.25 654.544 953.246 654.549C953.181 654.551 953.125 654.566 953.044 654.579ZM954.98 654.338C955.02 654.342 954.965 654.348 954.908 654.354C954.903 654.351 954.893 654.348 954.873 654.344C954.863 654.345 954.851 654.345 954.839 654.346C954.892 654.343 954.942 654.34 954.98 654.338Z" fill="#676362"/>
<path id="Vector_83" d="M954.611 654.354C954.605 654.353 954.593 654.354 954.59 654.353C954.566 654.356 954.544 654.359 954.527 654.362C954.557 654.361 954.586 654.359 954.615 654.358C954.614 654.356 954.613 654.355 954.611 654.354Z" fill="#676362"/>
<path id="Vector_84" d="M954.498 658.366L954.504 658.365C954.493 658.367 954.482 658.368 954.464 658.37C954.478 658.368 954.487 658.368 954.498 658.366Z" fill="#676362"/>
<path id="Vector_85" d="M952.554 655.226L952.625 655.22L952.562 655.221L952.554 655.226Z" fill="#676362"/>
<path id="Vector_86" d="M953.554 658.681C953.529 658.683 953.504 658.686 953.483 658.69C953.501 658.688 953.527 658.685 953.554 658.681Z" fill="#676362"/>
<path id="Vector_87" d="M953.499 658.79L953.4 658.812C953.457 658.802 953.484 658.795 953.499 658.79Z" fill="#676362"/>
<path id="Vector_88" d="M953.366 658.881C953.415 658.878 953.452 658.876 953.486 658.873C953.487 658.873 953.487 658.873 953.488 658.873L953.366 658.881Z" fill="#676362"/>
<path id="Vector_89" d="M952.94 657.629C952.938 657.628 952.935 657.627 952.927 657.627C952.872 657.624 952.894 657.627 952.94 657.629Z" fill="#676362"/>
<path id="Vector_90" d="M953.624 657.959C953.573 657.959 953.523 657.959 953.491 657.957C953.47 657.966 953.464 657.971 953.624 657.959Z" fill="#676362"/>
<path id="Vector_91" d="M952.57 657.23H952.575V657.227L952.57 657.23Z" fill="#676362"/>
<path id="Vector_92" d="M953.494 657.939C953.439 657.95 953.451 657.955 953.49 657.957C953.509 657.95 953.537 657.942 953.494 657.939Z" fill="#676362"/>
<path id="Vector_93" d="M953.266 659.239L953.255 659.244C953.274 659.242 953.289 659.242 953.3 659.241L953.266 659.239Z" fill="#676362"/>
<path id="Vector_94" d="M953.299 659.241L953.332 659.243C953.333 659.241 953.33 659.239 953.299 659.241Z" fill="#676362"/>
<path id="Vector_95" d="M953.404 659.246L953.333 659.242C953.332 659.246 953.324 659.25 953.404 659.246Z" fill="#676362"/>
<path id="Vector_96" d="M953.387 659.123L953.285 659.13C953.307 659.129 953.34 659.126 953.387 659.123Z" fill="#676362"/>
<path id="Vector_97" d="M953.355 659.093C953.332 659.102 953.14 659.129 953.204 659.135L953.285 659.13C953.134 659.136 953.527 659.087 953.355 659.093Z" fill="#676362"/>
<path id="Vector_98" d="M954.602 658.863L954.523 658.896C954.631 658.883 954.776 658.866 954.803 658.876C955.123 658.817 954.561 658.901 954.602 658.863Z" fill="#676362"/>
<path id="Vector_99" d="M954.752 658.767C954.804 658.778 954.909 658.755 954.971 658.751C954.871 658.749 954.846 658.749 954.752 658.767Z" fill="#676362"/>
<path id="Vector_100" d="M954.707 658.16L954.962 658.142C954.925 658.134 954.863 658.149 954.707 658.16Z" fill="#676362"/>
<path id="Vector_101" d="M953.38 658.144L953.222 658.167L953.456 658.154L953.38 658.144Z" fill="#676362"/>
<path id="Vector_102" d="M955.192 657.938L955.229 657.94L955.135 657.928L955.192 657.938Z" fill="#676362"/>
<path id="Vector_103" d="M955.024 656.925L954.71 656.952C954.767 656.956 955.12 656.931 955.024 656.925Z" fill="#676362"/>
<path id="Vector_104" d="M954.67 656.51C954.827 656.493 954.927 656.473 954.772 656.477C954.751 656.488 954.63 656.508 954.67 656.51Z" fill="#676362"/>
<path id="Vector_105" d="M955.082 655.151L955.188 655.152L955.099 655.142L955.082 655.151Z" fill="#676362"/>
</g>
</g>
</g>
</g>
</g>
<g id="Group_27">
<g id="Group_28">
<g id="Group_29">
<g id="Group_30">
<path id="Vector_106" d="M713.442 876.248L717.964 875.705L709.459 804.854L704.936 805.397L713.442 876.248Z" fill="#6F9AD8"/>
</g>
<path id="Vector_107" d="M709.488 804.871L706.395 798.41L704.966 805.414L709.488 804.871Z" fill="#FACD8C"/>
<g id="Group_31">
<path id="Vector_108" d="M719.514 880.802L724.037 880.259L715.531 809.409L711.008 809.952L719.514 880.802Z" fill="#6F9AD8"/>
</g>
<path id="Vector_109" d="M715.561 809.426L712.468 802.964L711.039 809.969L715.561 809.426Z" fill="#FACD8C"/>
<g id="Group_32">
<path id="Vector_110" d="M724.069 870.175L728.591 869.632L720.086 798.782L715.563 799.325L724.069 870.175Z" fill="#6F9AD8"/>
</g>
<path id="Vector_111" d="M720.116 798.798L717.022 792.337L715.593 799.341L720.116 798.798Z" fill="#FACD8C"/>
<g id="Group_33">
<path id="Vector_112" d="M731.124 873.249L735.655 872.778L728.269 801.806L723.739 802.278L731.124 873.249Z" fill="#6F9AD8"/>
</g>
<path id="Vector_113" d="M728.216 801.814L725.225 795.304L723.686 802.285L728.216 801.814Z" fill="#FACD8C"/>
<g id="Group_34">
<path id="Vector_114" d="M733.565 867.22L738.114 866.987L734.468 795.723L729.919 795.956L733.565 867.22Z" fill="#6F9AD8"/>
</g>
<path id="Vector_115" d="M734.473 795.729L731.828 789.071L729.924 795.962L734.473 795.729Z" fill="#FACD8C"/>
<g id="Group_35">
<path id="Vector_116" d="M735.934 873.182L740.489 873.207L740.874 801.85L736.319 801.825L735.934 873.182Z" fill="#6F9AD8"/>
</g>
<path id="Vector_117" d="M740.854 801.889L738.589 795.092L736.299 801.864L740.854 801.889Z" fill="#FACD8C"/>
<g id="Group_36">
<path id="Vector_118" d="M737.977 866.896L742.521 867.208L747.395 796.015L742.85 795.704L737.977 866.896Z" fill="#6F9AD8"/>
</g>
<path id="Vector_119" d="M747.436 796.034L745.603 789.109L742.892 795.723L747.436 796.034Z" fill="#FACD8C"/>
</g>
<path id="Vector_120" d="M707.293 834L713.366 896H743.731L749.804 834H707.293Z" fill="#6F9AD8"/>
<path id="Vector_121" d="M701.22 834L707.293 896H737.658L743.731 834H701.22Z" fill="#A6BFFF"/>
</g>
<path id="Vector_122" d="M708.41 859.319C707.9 859.319 707.47 858.923 707.436 858.406L706.264 840.485C706.229 839.947 706.637 839.482 707.175 839.447C707.716 839.412 708.178 839.82 708.213 840.358L709.385 858.278C709.42 858.816 709.012 859.281 708.474 859.316C708.453 859.318 708.431 859.319 708.41 859.319Z" fill="white"/>
</g>
<g id="Group_37">
<g id="Group_38">
<path id="Vector_123" d="M672 799H668V870H672V799Z" fill="#4F84AF"/>
<path id="Vector_124" d="M672 797H668V802H672V797Z" fill="#487199"/>
<path id="Vector_125" d="M667.819 870L670.12 874.602L672.374 870H667.819Z" fill="#487199"/>
<path id="Vector_126" d="M659 806H654V878H659V806Z" fill="#4F84AF"/>
<path id="Vector_127" d="M659 805H654V809H659V805Z" fill="#487199"/>
<path id="Vector_128" d="M654.155 878L656.456 882.602L658.71 878H654.155Z" fill="#487199"/>
<path id="Vector_129" d="M646.91 797.409L642.409 798.108L653.355 868.623L657.856 867.924L646.91 797.409Z" fill="#4F84AF"/>
<path id="Vector_130" d="M646.677 795.91L642.175 796.609L642.874 801.11L647.375 800.411L646.677 795.91Z" fill="#487199"/>
<path id="Vector_131" d="M653.346 868.577L656.326 872.772L657.847 867.878L653.346 868.577Z" fill="#487199"/>
<path id="Vector_132" d="M681.021 808.168L676.477 807.852L671.525 879.038L676.069 879.354L681.021 808.168Z" fill="#4F84AF"/>
<path id="Vector_133" d="M681.126 806.652L676.582 806.336L676.266 810.88L680.81 811.197L681.126 806.652Z" fill="#487199"/>
<path id="Vector_134" d="M671.529 879.019L673.505 883.77L676.073 879.335L671.529 879.019Z" fill="#487199"/>
<path id="Vector_135" d="M665 802H660V873H665V802Z" fill="#4F84AF"/>
<path id="Vector_136" d="M665 800H660V805H665V800Z" fill="#487199"/>
<path id="Vector_137" d="M660.228 873L662.529 877.602L664.783 873H660.228Z" fill="#487199"/>
</g>
<path id="Vector_138" d="M645.046 834L651.119 896H681.483L687.556 834H645.046Z" fill="#6F9AD8"/>
<path id="Vector_139" d="M638.973 834L645.046 896H675.41L681.483 834H638.973Z" fill="#A6BFFF"/>
<path id="Vector_140" d="M646.162 859.319C645.652 859.319 645.222 858.923 645.188 858.406L644.016 840.485C643.981 839.947 644.389 839.482 644.927 839.447C645.468 839.412 645.93 839.82 645.965 840.358L647.137 858.278C647.172 858.816 646.764 859.281 646.226 859.316C646.205 859.318 646.184 859.319 646.162 859.319Z" fill="white"/>
</g>
<g id="Group_39">
<path id="Vector_141" d="M1441.78 1144.21L1456.9 1162.53L1521.3 1164.19L1546.21 1144.21C1481.39 1134.27 1441.78 1144.21 1441.78 1144.21Z" fill="#6C80A3"/>
<g id="Group_40">
<g id="Group_41">
<g id="Group_42">
<path id="Vector_142" d="M1471.59 1057.83C1471.59 1057.83 1494.49 1096 1493.6 1162H1491.23C1491.23 1162 1490.79 1098.89 1470.18 1060.67L1471.59 1057.83Z" fill="#9FC1F4"/>
<path id="Vector_143" d="M1499.81 1075.36C1489.43 1067.52 1491.2 1058.66 1491.2 1058.66C1491.2 1058.66 1504.62 1039.69 1488.17 1031.08C1471.72 1022.48 1464.13 1043.99 1464.13 1043.99L1462.97 1045.27L1462.23 1043.42C1459.2 1019.13 1437.18 1024.25 1437.18 1024.25C1406.63 1033.36 1408.71 1056.51 1408.71 1056.51C1428.83 1047.78 1441.74 1050.82 1434.15 1056.32C1426.55 1061.83 1421.81 1054.8 1411.94 1062.96C1402.07 1071.13 1415.55 1079.41 1415.55 1079.41C1444.65 1053.35 1441.86 1066.76 1441.86 1066.76C1441.86 1066.76 1429.97 1071.57 1419.85 1080.17C1409.73 1088.77 1421.11 1105.73 1421.11 1105.73L1429.72 1102.94C1429.72 1102.94 1429.72 1102.94 1426.68 1109.78C1423.65 1116.61 1439.08 1128.75 1439.08 1128.75C1436.8 1123.19 1447.94 1100.41 1452.24 1103.45C1456.54 1106.49 1442.37 1129.26 1442.37 1129.26L1459.83 1138.62C1461.85 1133.56 1484.12 1119.64 1484.12 1119.64C1484.12 1119.64 1486.15 1116.86 1482.86 1113.82C1479.57 1110.79 1473.49 1101.43 1473.49 1101.43C1482.35 1102.44 1489.18 1115.09 1489.18 1115.09C1505.63 1101.43 1489.94 1092.32 1489.94 1092.32C1489.94 1092.32 1465.14 1080.93 1479.31 1079.92C1493.48 1078.91 1503.1 1095.35 1503.1 1095.35C1503.1 1095.35 1510.18 1083.21 1499.81 1075.36Z" fill="#9FC1F4"/>
</g>
<g id="Group_43">
<path id="Vector_144" d="M1515.72 1055.33C1515.72 1055.33 1490.33 1095.47 1499.62 1158.65L1502.73 1158.25C1502.73 1158.25 1495.57 1097.81 1517.9 1057.73L1515.72 1055.33Z" fill="#9FC1F4"/>
<path id="Vector_145" d="M1568.12 1035.27C1555.71 1039.17 1549.53 1032.59 1549.53 1032.59C1549.53 1032.59 1541.85 1010.66 1525.3 1019.06C1508.75 1027.47 1521.87 1046.13 1521.87 1046.13L1522.23 1047.82L1520.3 1047.35C1498.75 1035.73 1490.16 1056.63 1490.16 1056.63C1479.85 1086.8 1499.92 1098.53 1499.92 1098.53C1504.48 1077.08 1514.44 1068.34 1514.52 1077.71C1514.6 1087.09 1506.12 1086.88 1507.05 1099.65C1507.97 1112.42 1522.54 1106.26 1522.54 1106.26C1518.19 1067.43 1527.5 1077.48 1527.5 1077.48C1527.5 1077.48 1524.51 1089.96 1525.65 1103.19C1526.78 1116.43 1547.2 1116.99 1547.2 1116.99L1549.92 1108.37C1549.92 1108.37 1549.92 1108.37 1553.73 1114.8C1557.53 1121.24 1576.38 1115.71 1576.38 1115.71C1570.52 1114.34 1558.43 1092.06 1563.4 1090.32C1568.37 1088.57 1578.7 1113.33 1578.7 1113.33L1596.45 1104.54C1593.5 1099.95 1595.09 1073.74 1595.09 1073.74C1595.09 1073.74 1593.99 1070.48 1589.61 1071.4C1585.23 1072.31 1574.08 1071.83 1574.08 1071.83C1580.05 1065.2 1594.31 1066.98 1594.31 1066.98C1592.73 1045.65 1576.2 1053.15 1576.2 1053.15C1576.2 1053.15 1552.54 1066.74 1559.94 1054.61C1567.34 1042.48 1586.31 1044.19 1586.31 1044.19C1586.31 1044.19 1580.53 1031.37 1568.12 1035.27Z" fill="#9FC1F4"/>
</g>
</g>
<path id="Vector_146" d="M1545.23 1148H1545.28L1531.43 1212H1455.75L1442.43 1150.24L1442.04 1148.24C1441.99 1148.04 1441.95 1147.76 1441.92 1147.55C1441.74 1146.46 1441.6 1145.3 1441.52 1144.13C1441.52 1144.13 1494.68 1148.62 1546.16 1144.21C1546.16 1144.21 1545.87 1145 1545.23 1148Z" fill="#9AB4EF"/>
</g>
</g>
<path id="Vector_147" d="M1489.1 1173.92L1488.97 1173.29H1488.98C1489.01 1173.51 1489.06 1173.72 1489.1 1173.92Z" fill="url(#paint0_linear)"/>
<path id="Vector_148" opacity="0.2" d="M575.869 800.042H512.029C498.854 809.815 490.313 825.48 490.313 843.145C490.313 872.767 514.327 896.781 543.949 896.781C573.571 896.781 597.585 872.767 597.585 843.145C597.585 825.48 589.044 809.814 575.869 800.042Z" fill="#7AABAB"/>
<path id="Vector_149" d="M500.141 815.414C495.05 823.436 492.086 832.94 492.086 843.144C492.086 871.787 515.306 895.007 543.949 895.007C572.592 895.007 595.812 871.787 595.812 843.144C595.812 832.94 592.848 823.436 587.757 815.414H500.141Z" fill="#A6BFFF"/>
<path id="Vector_150" opacity="0.3" d="M577.074 798.796C577.074 799.484 576.517 800.042 575.829 800.042H512.166C511.478 800.042 510.921 799.485 510.921 798.796C510.921 798.108 511.478 797.551 512.166 797.551H575.829C576.517 797.551 577.074 798.108 577.074 798.796Z" fill="#7AABAB"/>
<g id="Group_44">
<path id="Vector_151" opacity="0.5" d="M569.869 839.808C570.583 839.808 571.161 839.23 571.161 838.516C571.161 837.802 570.583 837.224 569.869 837.224C569.156 837.224 568.577 837.802 568.577 838.516C568.577 839.23 569.156 839.808 569.869 839.808Z" fill="white"/>
<path id="Vector_152" opacity="0.5" d="M568.27 834.831C569.307 834.831 570.147 833.991 570.147 832.954C570.147 831.917 569.307 831.077 568.27 831.077C567.233 831.077 566.393 831.917 566.393 832.954C566.393 833.991 567.233 834.831 568.27 834.831Z" fill="white"/>
<path id="Vector_153" opacity="0.5" d="M571.786 830.84C572.132 830.84 572.412 830.56 572.412 830.214C572.412 829.868 572.132 829.588 571.786 829.588C571.44 829.588 571.16 829.868 571.16 830.214C571.16 830.56 571.44 830.84 571.786 830.84Z" fill="white"/>
<path id="Vector_154" opacity="0.5" d="M566.065 828.377C566.976 828.377 567.715 827.638 567.715 826.727C567.715 825.816 566.976 825.077 566.065 825.077C565.154 825.077 564.415 825.816 564.415 826.727C564.415 827.638 565.154 828.377 566.065 828.377Z" fill="white"/>
<path id="Vector_155" opacity="0.5" d="M570.232 822.942C571.146 822.942 571.887 822.201 571.887 821.287C571.887 820.373 571.146 819.632 570.232 819.632C569.318 819.632 568.577 820.373 568.577 821.287C568.577 822.201 569.318 822.942 570.232 822.942Z" fill="white"/>
</g>
<g id="fish">
<path id="Vector_156" d="M528.932 831.109C529.502 832.72 530.872 834.025 532.509 834.516C533.765 834.893 535.28 834.89 536.104 835.91C536.981 836.997 536.682 838.855 537.838 839.638C538.688 840.214 540.039 839.951 540.628 840.792C541.051 841.396 540.825 842.268 541.187 842.911C541.61 843.663 542.613 843.792 543.466 843.927C544.319 844.062 545.329 844.479 545.401 845.339C550.423 844.65 555.471 844.148 560.53 843.836C558.717 842.705 557.529 840.805 556.599 838.881C555.669 836.956 554.921 834.923 553.687 833.179C550.997 829.378 545.975 827.385 541.411 828.309C539.288 828.738 537.326 829.726 535.291 830.466C533.254 831.206 531.015 831.702 528.932 831.109Z" fill="#6F9AD8"/>
<path id="Vector_157" d="M542.836 877.762C543.502 877.249 544.168 876.737 544.835 876.224C544.944 876.984 544.715 877.786 544.22 878.373C545.874 877.746 547.459 876.94 548.942 875.976C548.679 877.009 548.197 877.985 547.537 878.822C550.19 876.158 554.785 876.301 557.432 873.63C558.621 872.43 559.265 870.799 559.74 869.178C560.468 866.696 560.875 864.12 560.948 861.535C561.017 859.076 560.859 856.371 562.381 854.438C559.557 853.509 556.725 852.607 553.883 851.732C552.709 851.37 551.52 851.01 550.294 850.923C549.068 850.836 547.784 851.043 546.768 851.735C545.468 852.619 544.777 854.159 544.355 855.674C543.257 859.607 543.548 863.773 543.299 867.848C543.05 871.924 542.105 876.247 539.15 879.065C541.324 877.961 543.151 876.184 544.315 874.041C544.078 875.364 543.572 876.637 542.836 877.762Z" fill="#6F9AD8"/>
<path id="Vector_158" d="M545.384 848.852C545.375 849.212 545.261 849.532 545.089 849.824C544.677 850.507 543.92 851.045 543.277 851.602C543.219 851.651 543.164 851.701 543.108 851.75C541.106 853.553 540.368 856.358 540.008 859.027C539.396 863.576 539.596 868.227 538.658 872.721C538.196 874.935 537.381 877.162 536.179 879.081C534.942 881.056 533.291 882.704 531.181 883.686C529.194 884.611 526.847 884.932 525.273 886.454C525.79 885.095 525.983 883.615 525.829 882.17C525.245 882.819 524.657 883.471 524.073 884.12C524.876 880.93 524.762 877.516 523.747 874.385C523.627 875.142 523.507 875.895 523.387 876.649C522.415 871.574 522.772 866.25 524.414 861.35C523.645 862.319 522.873 863.291 522.101 864.259C523.048 861.217 523.039 857.975 523.482 854.82C523.928 851.667 524.968 848.379 527.441 846.374C529.452 844.744 532.168 844.19 534.752 844.338C537.237 844.479 539.642 845.205 542.01 845.969C542.105 845.999 542.204 846.031 542.302 846.061C543.013 846.292 543.736 846.528 544.338 846.971C544.938 847.412 545.405 848.104 545.384 848.852Z" fill="#487199"/>
<path id="Vector_159" d="M563.446 854.07C563.587 853.605 564.335 853.481 564.792 853.316C563.676 856.057 564.062 859.156 564.564 862.073C565.066 864.991 565.685 868.725 564.946 871.591C564.113 874.824 561.628 876.819 561.222 880.133C560.412 876.37 561.192 874.73 561.894 872.417C563.819 866.088 561.74 859.7 563.446 854.07Z" fill="#487199"/>
<path id="Vector_160" d="M562.624 855.001C562.81 854.552 563.566 854.503 564.038 854.384C562.655 857.002 562.733 860.123 562.944 863.075C563.154 866.028 563.4 869.805 562.381 872.584C561.232 875.719 558.561 877.457 557.829 880.715C557.396 876.89 558.334 875.335 559.263 873.104C561.803 866.997 560.368 860.435 562.624 855.001Z" fill="#6F9AD8"/>
<path id="Vector_161" d="M570.39 850.747C570.387 850.787 570.384 850.824 570.375 850.864C570.369 850.926 570.357 850.99 570.338 851.052C569.596 853.799 561.587 855.626 561.009 855.669C557.97 855.9 555.58 855.002 552.372 852.848C550.696 851.725 543.606 851.618 543.606 851.618C543.492 851.618 543.381 851.611 543.277 851.602C542.084 851.492 541.352 850.781 541.008 849.886C540.635 848.923 540.716 847.748 541.159 846.896C541.365 846.496 541.654 846.17 542.011 845.967C542.11 845.908 542.214 845.862 542.325 845.825C548.609 843.146 554.41 841.602 559.319 842.134C563.394 843.158 564.043 844.884 566.009 846.286C566.603 846.71 567.119 847.086 567.571 847.427C569.395 848.802 570.139 849.565 570.336 850.241C570.387 850.411 570.402 850.577 570.39 850.747Z" fill="#487199"/>
<path id="Vector_162" opacity="0.2" d="M557.075 842.097C557.111 842.129 557.147 842.161 557.183 842.193L557.075 842.097Z" fill="black"/>
<path id="Vector_163" opacity="0.2" d="M557.087 842.083C557.138 842.151 557.19 842.219 557.241 842.288L557.087 842.083Z" fill="black"/>
<path id="Vector_164" opacity="0.2" d="M530.277 831.779C530.294 831.796 530.311 831.813 530.328 831.83L530.277 831.779Z" fill="black"/>
<path id="Vector_165" d="M566.546 849.389C566.998 849.389 567.365 849.022 567.365 848.57C567.365 848.118 566.998 847.751 566.546 847.751C566.094 847.751 565.727 848.118 565.727 848.57C565.727 849.022 566.094 849.389 566.546 849.389Z" fill="white"/>
<path id="Vector_166" d="M566.546 849.067C566.821 849.067 567.043 848.844 567.043 848.57C567.043 848.296 566.821 848.073 566.546 848.073C566.272 848.073 566.049 848.296 566.049 848.57C566.049 848.844 566.272 849.067 566.546 849.067Z" fill="black"/>
<path id="Vector_167" d="M566.18 848.646C566.367 848.646 566.518 848.495 566.518 848.308C566.518 848.121 566.367 847.97 566.18 847.97C565.993 847.97 565.842 848.121 565.842 848.308C565.842 848.495 565.993 848.646 566.18 848.646Z" fill="white"/>
<path id="Vector_168" d="M566.884 849.033C566.972 849.033 567.044 848.961 567.044 848.873C567.044 848.785 566.972 848.713 566.884 848.713C566.796 848.713 566.724 848.785 566.724 848.873C566.724 848.961 566.796 849.033 566.884 849.033Z" fill="white"/>
<path id="Vector_169" opacity="0.2" d="M570.39 850.747C570.387 850.787 570.384 850.824 570.375 850.864C569.649 850.904 568.689 851.076 567.582 851.132C568.585 850.713 569.43 850.421 570.335 850.243C570.387 850.411 570.402 850.577 570.39 850.747Z" fill="black"/>
<g id="Group_45">
<path id="Vector_170" opacity="0.5" d="M562.733 850.082C561.81 850.268 561.877 851.736 562.802 851.854C562.277 851.313 562.249 850.665 562.733 850.082Z" fill="white"/>
<path id="Vector_171" opacity="0.5" d="M562.355 850.015C562.274 849.665 562.236 849.396 562.308 849.038C562.359 848.821 562.674 848.495 562.884 848.295C562.007 848.349 561.638 849.473 562.355 850.015Z" fill="white"/>
<path id="Vector_172" opacity="0.5" d="M561.381 851.268C560.866 850.648 560.918 849.945 561.508 849.4C560.529 849.512 560.423 851.029 561.381 851.268Z" fill="white"/>
<path id="Vector_173" opacity="0.5" d="M562.325 848.046C562.092 847.37 562.287 846.81 562.89 846.424C562.017 846.295 561.566 847.605 562.325 848.046Z" fill="white"/>
<path id="Vector_174" opacity="0.5" d="M560.776 849.242C560.461 848.394 560.764 847.651 561.589 847.276C560.527 847.124 559.924 848.6 560.776 849.242Z" fill="white"/>
<path id="Vector_175" opacity="0.5" d="M564.234 846.777C563.283 846.364 562.513 847.81 563.378 848.376C563.085 847.616 563.436 846.951 564.234 846.777Z" fill="white"/>
<path id="Vector_176" opacity="0.5" d="M559.458 850.718C559.409 850.379 559.379 850.127 559.47 849.789C559.629 849.482 559.82 849.304 560.086 849.092C559.212 849.056 558.801 850.155 559.458 850.718Z" fill="white"/>
<path id="Vector_177" opacity="0.5" d="M559.375 848.206C559.54 847.969 559.739 847.831 559.97 847.666C559.188 847.529 558.691 848.474 559.174 849.068C559.202 848.769 559.195 848.465 559.375 848.206Z" fill="white"/>
<path id="Vector_178" opacity="0.5" d="M560.721 847.145C560.51 846.317 560.95 845.666 561.803 845.568C560.858 845.069 559.926 846.443 560.721 847.145Z" fill="white"/>
<path id="Vector_179" opacity="0.5" d="M559.247 847.552C559.254 847.26 559.276 846.81 559.396 846.618C559.6 846.318 559.819 846.149 560.117 845.953C559.237 845.85 558.701 846.876 559.247 847.552Z" fill="white"/>
<path id="Vector_180" opacity="0.5" d="M558.517 848.944C557.822 848.829 557.518 849.804 558.115 850.136C558.084 849.888 558.072 849.719 558.109 849.47C558.153 849.366 558.375 849.082 558.517 848.944Z" fill="white"/>
<path id="Vector_181" opacity="0.5" d="M557.661 847.589C557.419 847.93 557.471 848.751 558.054 848.68C557.708 848.486 557.722 848.016 557.933 847.731C558.137 847.456 558.401 847.277 558.651 847.048C558.254 847.08 557.892 847.263 557.661 847.589Z" fill="white"/>
<path id="Vector_182" opacity="0.5" d="M557.918 846.961C557.792 846.355 558.049 845.899 558.625 845.682C557.886 845.337 557.226 846.529 557.918 846.961Z" fill="white"/>
<path id="Vector_183" opacity="0.5" d="M559.182 845.94C559.171 845.935 559.16 845.93 559.148 845.925C559.129 845.319 559.489 844.945 560.093 844.912C559.767 844.597 559.225 844.801 559.033 845.159C558.961 845.294 558.929 845.455 558.951 845.608C558.967 845.698 559.045 846.025 559.182 845.94Z" fill="white"/>
<path id="Vector_184" opacity="0.5" d="M557.299 846.453C556.228 846.128 555.76 847.899 556.853 848.139C556.27 847.512 556.506 846.72 557.299 846.453Z" fill="white"/>
<path id="Vector_185" opacity="0.5" d="M557.203 848.404C556.4 848.308 556.588 849.808 557.355 849.496C556.921 849.237 556.854 848.774 557.203 848.404Z" fill="white"/>
<path id="Vector_186" opacity="0.5" d="M557.138 846.122C556.949 845.51 557.14 845.014 557.702 844.702C556.903 844.482 556.412 845.733 557.138 846.122Z" fill="white"/>
<path id="Vector_187" opacity="0.5" d="M555.724 846.901C555.461 846.302 555.698 845.769 556.28 845.505C555.46 845.216 554.928 846.552 555.724 846.901Z" fill="white"/>
<path id="Vector_188" opacity="0.5" d="M556.01 847.819C556.014 847.804 555.614 847.954 555.562 848.016C555.456 848.139 555.415 848.265 555.39 848.427C555.421 848.749 555.684 849.124 556.051 848.942C555.49 848.675 555.723 848.183 556.01 847.819Z" fill="white"/>
<path id="Vector_189" opacity="0.5" d="M554.411 847.402C554.433 847.017 554.721 846.732 554.965 846.465C554.511 846.587 554.171 846.921 554.108 847.391C554.041 847.894 554.511 848.559 555.076 848.306C554.618 848.238 554.386 847.839 554.411 847.402Z" fill="white"/>
<path id="Vector_190" opacity="0.5" d="M555.753 845.293C555.735 845.145 555.732 844.778 555.756 844.71C555.828 844.507 555.929 844.341 556.061 844.17C555.421 844.103 555.243 845.019 555.753 845.293Z" fill="white"/>
<path id="Vector_191" opacity="0.5" d="M554.556 846.366C554.138 845.787 554.344 845.137 555.028 844.918C554.1 844.539 553.597 846.168 554.556 846.366Z" fill="white"/>
<path id="Vector_192" opacity="0.5" d="M553.627 845.926C552.758 845.656 552.483 847.264 553.414 847.29C552.958 846.833 553.076 846.232 553.627 845.926Z" fill="white"/>
<path id="Vector_193" opacity="0.5" d="M553.965 847.94C553.128 847.927 553.459 849.442 554.224 849.063C553.738 848.84 553.623 848.356 553.965 847.94Z" fill="white"/>
<path id="Vector_194" opacity="0.5" d="M552.647 847.314C551.816 847.528 552.403 848.943 553.146 848.5C552.588 848.329 552.378 847.832 552.647 847.314Z" fill="white"/>
<path id="Vector_195" opacity="0.5" d="M553.323 845.571C553.278 845.357 553.297 845.213 553.333 845.003C553.345 844.982 553.366 844.941 553.369 844.936C553.453 844.782 553.58 844.676 553.723 844.579C553.11 844.307 552.725 845.303 553.323 845.571Z" fill="white"/>
<path id="Vector_196" opacity="0.5" d="M552.591 846.464C552.435 846.344 552.327 846.144 552.327 845.945C552.327 845.922 552.335 845.886 552.324 845.928C552.354 845.683 552.457 845.5 552.559 845.277C551.855 845.421 551.893 846.644 552.591 846.464Z" fill="white"/>
<path id="Vector_197" opacity="0.5" d="M551.859 847.766C551.702 847.6 551.498 847.297 551.459 847.164C551.431 846.896 551.495 846.704 551.579 846.452C550.882 846.725 551.101 847.806 551.859 847.766Z" fill="white"/>
<path id="Vector_198" opacity="0.5" d="M551.3 848.109C550.586 848.575 551.701 849.52 551.977 848.864C551.492 848.972 551.287 848.512 551.3 848.109Z" fill="white"/>
<path id="Vector_199" opacity="0.5" d="M550.211 846.251C550.198 846.592 550.39 847.021 550.781 847.037C550.284 846.497 550.616 845.957 550.896 845.413C550.548 845.536 550.227 845.865 550.211 846.251Z" fill="white"/>
<path id="Vector_200" opacity="0.5" d="M550.138 847.047C549.339 847.451 549.89 848.831 550.743 848.538C550.108 848.255 549.882 847.694 550.138 847.047Z" fill="white"/>
<path id="Vector_201" opacity="0.5" d="M549.69 848.91C549.691 848.76 549.68 848.638 549.713 848.488C549.17 848.531 549.362 849.466 549.876 849.295C549.797 849.183 549.732 849.069 549.698 848.937C549.697 848.933 549.693 848.92 549.69 848.91Z" fill="white"/>
<path id="Vector_202" opacity="0.5" d="M549.214 846.591C549.194 846.483 549.208 846.122 549.256 845.933C548.631 846.221 548.899 847.178 549.566 847.147C549.416 846.96 549.313 846.813 549.214 846.591Z" fill="white"/>
<path id="Vector_203" opacity="0.5" d="M548.582 847.884C548.576 847.704 548.627 847.554 548.7 847.392C548.066 847.452 548.191 848.51 548.82 848.421C548.7 848.264 548.625 848.114 548.582 847.925C548.585 847.926 548.582 847.895 548.582 847.884Z" fill="white"/>
<path id="Vector_204" opacity="0.5" d="M548.468 849.081C548.405 848.947 548.375 848.826 548.368 848.677C547.837 848.878 548.356 849.748 548.784 849.371C548.655 849.294 548.554 849.201 548.468 849.081Z" fill="white"/>
<path id="Vector_205" opacity="0.5" d="M547.95 846.907C547.947 846.75 547.983 846.601 548.026 846.45C547.478 846.516 547.551 847.424 548.093 847.416C548.022 847.257 547.989 847.112 547.95 846.944C547.95 846.93 547.95 846.912 547.95 846.907Z" fill="white"/>
<path id="Vector_206" opacity="0.5" d="M547.357 847.687C546.795 848.02 547.026 848.947 547.704 848.926C547.555 848.733 547.43 848.569 547.347 848.338C547.313 848.244 547.342 847.861 547.357 847.687Z" fill="white"/>
<path id="Vector_207" opacity="0.5" d="M546.559 848.904C546.153 849.042 546.53 849.712 546.859 849.446C546.835 849.414 546.683 849.161 546.697 849.182C546.661 849.084 546.59 849.006 546.559 848.904Z" fill="white"/>
<path id="Vector_208" opacity="0.5" d="M546.525 847.087C546.038 847.156 545.965 847.937 546.428 848.098C546.41 847.735 546.44 847.44 546.525 847.087Z" fill="white"/>
<path id="Vector_209" opacity="0.5" d="M545.793 848.254C545.261 848.173 545.345 849.143 545.852 848.978C545.782 848.855 545.751 848.737 545.726 848.6C545.732 848.635 545.768 848.321 545.793 848.254Z" fill="white"/>
<path id="Vector_210" opacity="0.5" d="M544.669 849.489C544.805 849.577 544.921 849.444 544.752 849.344C544.774 849.366 544.812 849.377 544.839 849.393C544.881 849.277 544.854 849.1 544.82 848.986C544.552 848.996 544.473 849.324 544.669 849.489Z" fill="white"/>
<path id="Vector_211" opacity="0.5" d="M543.592 848.781C543.141 848.921 543.556 849.667 543.913 849.366C543.834 849.284 543.769 849.193 543.712 849.095C543.676 848.985 543.619 848.895 543.592 848.781Z" fill="white"/>
<path id="Vector_212" opacity="0.5" d="M544.452 848.564C544.61 848.626 544.549 848.069 544.505 847.98C544.231 848.05 544.169 848.453 544.452 848.564Z" fill="white"/>
<path id="Vector_213" opacity="0.5" d="M543.506 847.955C543.231 848.023 543.206 848.443 543.503 848.499C543.661 848.527 543.547 848.026 543.506 847.955Z" fill="white"/>
<path id="Vector_214" opacity="0.5" d="M542.562 849.003C542.722 849.033 542.56 848.488 542.508 848.416C542.248 848.534 542.261 848.947 542.562 849.003Z" fill="white"/>
<path id="Vector_215" opacity="0.5" d="M541.763 849.14C541.96 849.158 541.731 848.649 541.691 848.546C541.394 848.626 541.469 849.114 541.763 849.14Z" fill="white"/>
</g>
</g>
<path id="Vector_216" opacity="0.8" d="M944.208 1235.54C1332.41 1235.54 1647.1 1225.45 1647.1 1213.02C1647.1 1200.58 1332.41 1190.5 944.208 1190.5C556.009 1190.5 241.312 1200.58 241.312 1213.02C241.312 1225.45 556.009 1235.54 944.208 1235.54Z" fill="url(#paint1_radial)"/>
<path id="Vector_217" opacity="0.8" d="M632.972 1234.02C1021.17 1234.02 1335.87 1225.3 1335.87 1214.54C1335.87 1203.77 1021.17 1195.05 632.972 1195.05C244.773 1195.05 -69.924 1203.77 -69.924 1214.54C-69.924 1225.3 244.773 1234.02 632.972 1234.02Z" fill="url(#paint2_radial)"/>
<path id="Vector_218" opacity="0.8" d="M1506.7 1230.98C1638.73 1230.98 1745.76 1222.26 1745.76 1211.5C1745.76 1200.74 1638.73 1192.01 1506.7 1192.01C1374.67 1192.01 1267.64 1200.74 1267.64 1211.5C1267.64 1222.26 1374.67 1230.98 1506.7 1230.98Z" fill="url(#paint3_radial)"/>
<path id="Vector_219" d="M282.254 814.37C282.254 817.535 280.388 820.1 278.086 820.1H249.751C247.449 820.1 245.583 817.535 245.583 814.37C245.583 811.205 247.449 808.64 249.751 808.64H278.086C280.388 808.641 282.254 811.206 282.254 814.37Z" fill="#728AB2"/>
<g id="Group_46">
<path id="Vector_220" d="M266.2 1215.6H257.032V655.635C254.926 581.181 273.225 534.681 311.424 517.543C356.31 497.413 415.736 524.938 444.728 548.354L438.761 554.912C412.621 533.801 356.009 507.113 315.366 525.341C280.738 540.876 264.196 584.675 266.199 655.519L266.2 1215.6Z" fill="#A6BFFF"/>
</g>
<path id="vector" d="M364.761 1228.06H160.784C160.784 1214.13 172.071 1202.84 185.995 1202.84H339.551C353.474 1202.84 364.761 1214.13 364.761 1228.06Z" fill="#728AB2"/>
<path id="vector_2" d="M364.761 1228.06H160.784C160.784 1214.13 172.071 1202.84 185.995 1202.84H339.551C353.474 1202.84 364.761 1214.13 364.761 1228.06Z" fill="#728AB2"/>
<g id="lights">
<path id="Vector_221" d="M547.595 568.048L522.736 637.714L703.921 900.355L854.821 584.452L547.595 568.048Z" fill="url(#paint4_linear)"/>
<path id="Vector_222" d="M547.595 568.048L522.736 637.714L703.921 900.355L854.821 584.452L547.595 568.048Z" fill="url(#paint5_linear)"/>
<path id="Vector_223" d="M547.595 568.048L522.736 637.714L703.921 900.355L854.821 584.452L547.595 568.048Z" fill="url(#paint6_linear)"/>
<path id="Vector_224" d="M547.595 568.048L522.736 637.714L703.921 900.355L854.821 584.452L547.595 568.048Z" fill="url(#paint7_linear)"/>
</g>
<path id="Vector_225" d="M473.867 534.559C461.353 527.486 446.812 525.354 435.581 529.072C423.701 533.001 417.506 542.813 419.506 554.525C420.646 561.195 424.341 567.859 429.849 573.626C433.479 577.432 437.9 580.849 442.895 583.626L525.947 670.159L553.694 626.227L566.472 605.998L594.221 562.064L473.867 534.559Z" fill="#A6BFFF"/>
</g>
</g>
</g>
<defs>
<linearGradient id="paint0_linear" x1="1488.97" y1="1173.61" x2="1489.1" y2="1173.61" gradientUnits="userSpaceOnUse">
<stop stop-color="#A8C2FC"/>
<stop offset="1" stop-color="#D1DEFF"/>
</linearGradient>
<radialGradient id="paint1_radial" cx="0" cy="0" r="1" gradientUnits="userSpaceOnUse" gradientTransform="translate(870.62 1215.8) rotate(0.191304) scale(654.19 25.2941)">
<stop stop-opacity="0.2"/>
<stop offset="0.2204" stop-color="#272727" stop-opacity="0.2"/>
<stop offset="0.7" stop-color="white" stop-opacity="0"/>
</radialGradient>
<radialGradient id="paint2_radial" cx="0" cy="0" r="1" gradientUnits="userSpaceOnUse" gradientTransform="translate(559.382 1217.04) rotate(0.165797) scale(654.189 21.8957)">
<stop stop-opacity="0.2"/>
<stop offset="0.2204" stop-color="#272727" stop-opacity="0.2"/>
<stop offset="0.7" stop-color="white" stop-opacity="0"/>
</radialGradient>
<radialGradient id="paint3_radial" cx="0" cy="0" r="1" gradientUnits="userSpaceOnUse" gradientTransform="translate(1481.84 1214.03) rotate(0.487453) scale(222.512 21.8949)">
<stop stop-opacity="0.2"/>
<stop offset="0.2204" stop-color="#272727" stop-opacity="0.2"/>
<stop offset="0.7" stop-color="white" stop-opacity="0"/>
</radialGradient>
<linearGradient id="paint4_linear" x1="479.542" y1="578.092" x2="838.411" y2="774.78" gradientUnits="userSpaceOnUse">
<stop stop-color="white"/>
<stop offset="0.3548" stop-color="white" stop-opacity="0.3"/>
<stop offset="1" stop-color="white" stop-opacity="0"/>
</linearGradient>
<linearGradient id="paint5_linear" x1="479.542" y1="578.092" x2="838.411" y2="774.78" gradientUnits="userSpaceOnUse">
<stop stop-color="white"/>
<stop offset="0.3548" stop-color="white" stop-opacity="0.3"/>
<stop offset="1" stop-color="white" stop-opacity="0"/>
</linearGradient>
<linearGradient id="paint6_linear" x1="479.542" y1="578.092" x2="838.411" y2="774.78" gradientUnits="userSpaceOnUse">
<stop stop-color="white"/>
<stop offset="0.3548" stop-color="white" stop-opacity="0.3"/>
<stop offset="1" stop-color="white" stop-opacity="0"/>
</linearGradient>
<linearGradient id="paint7_linear" x1="479.542" y1="578.092" x2="838.411" y2="774.78" gradientUnits="userSpaceOnUse">
<stop stop-color="white"/>
<stop offset="0.3548" stop-color="white" stop-opacity="0.3"/>
<stop offset="1" stop-color="white" stop-opacity="0"/>
</linearGradient>
<clipPath id="clip0">
<rect width="2000" height="1500" fill="white"/>
</clipPath>
</defs>
</svg>
